
<svg xmlns="http://www.w3.org/2000/svg" version="1.1" xmlns:xlink="http://www.w3.org/1999/xlink" preserveAspectRatio="none" x="0px" y="0px" width="25px" height="25px" viewBox="0 0 25 25">
<defs/>

<g id="Layer_1">
<g>
<g>
<g>
<path fill="#FFCC00" stroke="none" d="
M 25 16.65
L 22.35 15.35
Q 20.55 14.35 19.9 13.45
L 19.25 12.6
Q 20 18.65 17.35 20.35
L 17.05 20.1 14.45 21.1
Q 12.8 20 13.25 18 12.35 18.5 11.8 18.5 11.35 18.5 11.35 16.9
L 11.55 14.55 11 15.65
Q 10.2 16.85 9.25 16.85 7.6 16.85 6.3 15.85 4.8 14.75 4.85 13 2.1 16.7 0 17.95
L 0 25 25 25 25 16.65 Z"/>

<path fill="#FF6600" stroke="none" d="
M 21.55 7.8
Q 21.15 8.35 20.25 8.35 18.6 8.35 18.5 3.75
L 18.35 3.75 16.85 8.6
Q 15.5 12.35 13.55 12.35 11.85 12.35 10.5 8.25
L 9.75 8.5
Q 9.4 7.6 9.5 6.6 8.8 7.6 8.4 8.75
L 7.8 9.35
Q 6.85 9.35 6.8 7.65 6.8 5 5.5 2.75 5.7 3.95 4.5 6.05
L 2.1 10.5 0 7.45 0 17.95
Q 2.1 16.7 4.85 13 4.8 14.75 6.3 15.85 7.6 16.85 9.25 16.85 10.2 16.85 11 15.65
L 11.55 14.55 11.35 16.9
Q 11.35 18.5 11.8 18.5 12.35 18.5 13.25 18 12.8 20 14.45 21.1
L 17.05 20.1 17.35 20.35
Q 20 18.65 19.25 12.6
L 19.9 13.45
Q 20.55 14.35 22.35 15.35
L 25 16.65 25 5.85 23.15 7.35
Q 22.1 7.35 22.35 6.2
L 21.55 7.8 Z"/>
</g>
</g>
</g>
</g>
</svg>
