
<svg xmlns="http://www.w3.org/2000/svg" version="1.1" xmlns:xlink="http://www.w3.org/1999/xlink" preserveAspectRatio="none" x="0px" y="0px" width="25px" height="25px" viewBox="0 0 25 25">
<defs/>

<g id="Layer_1">
<g>
<g>
<g>
<path fill="#000066" stroke="none" d="
M 0 0
L 0 25 25 25 25 0 0 0 Z"/>
</g>
</g>
</g>

<g transform="matrix( 1, 0, 0, 1, 0,-0.1) ">
<g>
<g>
<path fill="#FFFF00" fill-opacity="0.30196078431372547" stroke="none" d="
M 0 21
L 0.3 20.15 2.95 20.1 0.85 18.45 1.6 15.95 0 17.1 0 21
M 9.75 15
L 6.05 17.65 10.55 17.9 11.95 22.25 13.6 18 18.2 18.05 14.7 15.15 16.1 10.9 12.3 13.3 8.65 10.6 9.75 15
M 4.9 2.05
L 3.2 1.8 2.8 0.1 2.05 1.7 0.3 1.55 1.55 2.7 0.9 4.3 2.4 3.5 3.75 4.65 3.4 2.95 4.9 2.05
M 12 3.7
L 11.65 1.95 10.9 3.55 9.2 3.35 10.45 4.6 9.75 6.15 11.25 5.4 12.55 6.5 12.25 4.8 13.8 3.85 12 3.7
M 21.3 22.25
L 22.65 23.4 22.3 21.7 23.8 20.8 22.1 20.55 21.7 18.85 20.95 20.45 19.2 20.3 20.45 21.45 19.8 23.05 21.3 22.25
M 22.75 2.6
L 20.35 3.55 18.55 1.55 18.75 4.15 16.3 5.25 18.85 5.95 19.1 8.5 20.5 6.35 23.15 6.9 21.5 4.9 22.75 2.6
M 22.05 12.3
L 22.3 11.4 21.55 12 20.75 11.45 21.05 12.35 20.35 12.95 21.3 12.95 21.65 13.8 21.9 12.9 22.85 12.85 22.05 12.3 Z"/>
</g>
</g>
</g>
</g>
</svg>
