
<svg xmlns="http://www.w3.org/2000/svg" version="1.1" xmlns:xlink="http://www.w3.org/1999/xlink" preserveAspectRatio="none" x="0px" y="0px" width="25px" height="25px" viewBox="0 0 25 25">
<defs/>

<g id="Layer_1">
<g>
<g>
<g>
<path fill="#FFFFFF" stroke="none" d="
M 75 6.9
L 75 0.05 50 0.05 50 25 25 25 25 0 0 0 0 6.9 0 25.15 0 50 75 50 75 25.15 75 6.9 Z"/>

<path fill="#000000" stroke="none" d="
M 37.5 -115
Q 26.35 -115 16.45 -112.15 7.75 -109.75 0 -105.15 -8.3 -100.3 -15.5 -93.05 -37.5 -71.1 -37.5 -40 -37.5 -8.95 -15.5 13
L -12.5 15.9
Q -7.7 20.25 -2.5 23.6
L 0 25.15 0 6.9 -4.9 2.4
Q -22.5 -15.15 -22.5 -40 -22.5 -64.9 -4.9 -82.45 0.85 -88.25 7.5 -92.1 13.7 -95.8 20.65 -97.75 28.6 -100 37.5 -100 46.4 -100 54.35 -97.75 61.3 -95.8 67.55 -92.1 74.15 -88.25 79.95 -82.45 97.5 -64.9 97.5 -40 97.5 -15.15 79.95 2.4
L 75 6.9 75 25.15 77.5 23.6
Q 82.7 20.25 87.5 15.9
L 90.55 13
Q 112.5 -8.95 112.5 -40 112.5 -71.1 90.55 -93.05 83.3 -100.3 75.05 -105.15 67.25 -109.75 58.6 -112.15 48.65 -115 37.5 -115 Z"/>
</g>
</g>
</g>

<g>
<g>
<g>
<path fill="#999999" stroke="none" d="
M 21.5 17.8
L 21.5 7.25 12.15 12.5 21.5 17.8
M 62.55 12.5
L 53.2 7.25 53.2 17.8 62.55 12.5 Z"/>
</g>
</g>
</g>
</g>
</svg>
