
<svg xmlns="http://www.w3.org/2000/svg" version="1.1" xmlns:xlink="http://www.w3.org/1999/xlink" preserveAspectRatio="none" x="0px" y="0px" width="25px" height="25px" viewBox="0 0 25 25">
<defs/>

<g id="Layer_1">
<g>
<g>
<g>
<path fill="#0000FF" stroke="none" d="
M 25 25
L 25 0 0 0 0 25 25 25 Z"/>
</g>
</g>
</g>

<g>
<g>
<g>
<path fill="#FFFF00" stroke="none" d="
M 19 20.8
L 17.3 20.55 16.9 18.85 16.15 20.45 14.4 20.3 15.65 21.45 15 23.05 16.5 22.25 17.85 23.4 17.5 21.7 19 20.8
M 9.95 23.1
L 9.75 22.15 10.6 21.7 9.65 21.6 9.45 20.65 9.05 21.5 8.1 21.4 8.8 22.05 8.4 22.9 9.25 22.5 9.95 23.1
M 4.05 18.2
L 3.65 16.5 2.9 18.1 1.15 17.95 2.4 19.1 1.75 20.7 3.25 19.9 4.6 21.05 4.25 19.35 5.75 18.45 4.05 18.2
M 3.1 4.05
L 3.25 5.85 4.2 4.4 5.9 4.8 4.85 3.45 5.8 1.95 4.15 2.55 3 1.2 3.05 2.9 1.5 3.55 3.1 4.05
M 19.9 8.05
L 14.65 7.6 13.15 2.5 11.05 7.35 5.75 7.2 9.75 10.65 7.95 15.7 12.5 12.9 16.75 16.2 15.5 11 19.9 8.05
M 20.9 20.05
L 23.55 20.15 24.4 22.6 25 21 25 17.1 24.45 17.45 22.25 15.95 23 18.45 20.9 20.05
M 24.7 6.55
L 23.75 6.45 23.55 5.5 23.15 6.35 22.2 6.25 22.9 6.9 22.5 7.75 23.35 7.35 24.05 7.95 23.85 7 24.7 6.55 Z"/>
</g>
</g>
</g>
</g>
</svg>
