
<svg xmlns="http://www.w3.org/2000/svg" version="1.1" xmlns:xlink="http://www.w3.org/1999/xlink" preserveAspectRatio="none" x="0px" y="0px" width="25px" height="25px" viewBox="0 0 25 25">
<defs/>

<g id="Layer_1">
<g>
<g>
<g>
<path fill="#000000" stroke="none" d="
M 62.55 -83.4
Q 68.05 -80.2 72.85 -75.35 87.5 -60.75 87.5 -40 87.5 -20.85 75 -6.95
L 72.85 -4.65
Q 70.3 -2.1 67.55 0
L 75 0 75 6.9 82.25 0
Q 97.5 -16.8 97.5 -40 97.5 -64.9 79.95 -82.45 74.15 -88.25 67.55 -92.1 61.3 -95.8 54.35 -97.75 46.4 -100 37.5 -100 28.6 -100 20.65 -97.75 13.7 -95.8 7.5 -92.1 0.85 -88.25 -4.9 -82.45 -22.5 -64.9 -22.5 -40 -22.5 -16.8 -7.2 0
L 0 6.9 0 0 7.45 0
Q 4.7 -2.1 2.15 -4.65
L 0 -6.95
Q -12.5 -20.85 -12.5 -40 -12.5 -60.75 2.15 -75.35 6.95 -80.2 12.5 -83.4 17.65 -86.5 23.45 -88.1 30.1 -90 37.5 -90 44.9 -90 51.55 -88.1 57.35 -86.5 62.55 -83.4 Z"/>
</g>
</g>
</g>
</g>
</svg>
