
<svg xmlns="http://www.w3.org/2000/svg" version="1.1" xmlns:xlink="http://www.w3.org/1999/xlink" preserveAspectRatio="none" x="0px" y="0px" width="25px" height="25px" viewBox="0 0 25 25">
<defs/>

<g id="Layer_1">
<g>
<g>
<g>
<path fill="#000000" stroke="none" d="
M 19.85 11.3
L 19.05 9.1 21.95 4.3 16.6 6.25 16.05 5.85 15.6 5.6 15.45 0 12 4.5 9.95 4.6 6.25 0.25 6.45 6 5.55 6.7 0 5.05 3.3 9.85 2.8 11.7
Q 0.1 12.8 -2.55 13.95
L 2.95 15.5 3.3 16.5 0 21.35 5.55 19.7
Q 6.35 20.4 7.3 20.9
L 7.75 26.5 10.9 21.85 12 21.85 15.45 26.4 15.6 20.75 17.55 19.3 22.9 20.55 19.5 16.2 19.85 15 25 13.2 19.85 11.35 19.85 11.3 Z"/>
</g>
</g>
</g>
</g>
</svg>
