
<svg xmlns="http://www.w3.org/2000/svg" version="1.1" xmlns:xlink="http://www.w3.org/1999/xlink" preserveAspectRatio="none" x="0px" y="0px" width="25px" height="25px" viewBox="0 0 25 25">
<defs/>

<g id="Layer_1">
<g>
<g>
<g>
<path fill="#FFFF00" stroke="none" d="
M 19.55 7.9
Q 16.6 5 12.5 5 8.35 5 5.4 7.9 2.5 10.85 2.5 15 2.5 19.1 5.4 22.05 8.35 25 12.5 25 16.6 25 19.55 22.05 22.5 19.1 22.5 15 22.5 10.85 19.55 7.9 Z"/>
</g>
</g>

<g>
<path stroke="#000000" stroke-width="1" stroke-linejoin="round" stroke-linecap="round" fill="none" d="
M 19.55 22.05
Q 16.6 25 12.5 25 8.35 25 5.4 22.05 2.5 19.1 2.5 15 2.5 10.85 5.4 7.9 8.35 5 12.5 5 16.6 5 19.55 7.9 22.5 10.85 22.5 15 22.5 19.1 19.55 22.05 Z"/>
</g>
</g>

<g>
<g>
<g>
<path fill="#000000" fill-opacity="0.2" stroke="none" d="
M 19.5 7.8
L 17.65 6.35
Q 19.15 8.65 19.15 11.6 19.15 15.7 16.2 18.6 15.2140625 19.5859375 14.1 20.25 15.8759765625 19.66171875 17.75 18.1 15.8759765625 19.66171875 14.1 20.25 11.8796875 21.566796875 9.15 21.6 6.2 21.55 3.9 20.1
L 5.35 21.9
Q 8.3 24.85 12.45 24.9 16.55 24.85 19.5 21.9 22.45 19 22.45 14.9 22.45 10.75 19.5 7.8 Z"/>
</g>
</g>

<g>
<path stroke="#000000" stroke-width="1" stroke-linejoin="round" stroke-linecap="round" fill="none" d="
M 6.75 18.1
Q 10.18828125 21.53828125 14.1 20.25 15.8759765625 19.66171875 17.75 18.1
M 15.8 10.4
L 15.8 14.8
M 8.55 10.4
L 8.55 14.8"/>
</g>
</g>
</g>
</svg>
